<?xml version="1.0" standalone="no"?>
<!DOCTYPE svg PUBLIC "-//W3C//DTD SVG 20010904//EN"
 "http://www.w3.org/TR/2001/REC-SVG-20010904/DTD/svg10.dtd">
<svg version="1.0" xmlns="http://www.w3.org/2000/svg"
 width="1600.000000pt" height="1200.000000pt" viewBox="0 0 1600.000000 1200.000000"
 preserveAspectRatio="xMidYMid meet">

<g transform="translate(0.000000,1200.000000) scale(0.100000,-0.100000)"
fill="#000000" stroke="none">
<path d="M4765 10751 c-54 -24 -132 -112 -176 -198 -39 -74 -283 -418 -647
-913 l-225 -305 -19 -140 c-34 -258 -34 -265 -10 -265 33 0 376 252 380 278 2
13 11 22 20 22 10 0 55 52 107 123 259 354 395 542 525 727 79 113 160 228
181 255 20 28 60 91 89 140 45 79 51 95 47 133 -13 124 -153 197 -272 143z
m151 -30 c45 -21 81 -64 90 -109 5 -23 -2 -45 -29 -93 -62 -110 -59 -108 -96
-67 -17 19 -54 46 -83 58 -44 19 -64 22 -120 17 -38 -3 -68 -4 -68 -1 0 3 20
36 44 73 80 124 168 165 262 122z m-131 -240 c38 -17 105 -81 105 -101 0 -5
-11 -21 -23 -36 l-24 -27 -40 40 c-54 54 -115 77 -192 71 -53 -4 -59 -2 -51
13 8 14 44 35 90 52 32 11 97 6 135 -12z m-136 -104 c-14 -12 -56 -64 -93
-114 -38 -51 -73 -93 -80 -93 -6 0 -90 -105 -186 -232 -96 -128 -223 -294
-282 -370 -59 -76 -117 -153 -129 -170 -21 -31 -113 -87 -124 -76 -3 3 10 25
28 49 78 102 385 522 551 752 97 136 178 247 179 247 1 0 20 7 42 15 22 8 58
14 80 15 l40 0 -26 -23z m-658 -1109 c26 -29 46 -55 43 -60 -6 -10 -240 -178
-248 -178 -3 0 -15 9 -26 20 -11 11 -26 20 -33 20 -11 0 -11 17 0 98 16 117
17 122 40 122 10 1 34 10 53 21 26 14 47 18 79 14 37 -4 51 -13 92 -57z"/>
<path d="M4519 9229 c-113 -17 -248 -128 -310 -254 -32 -66 -34 -76 -34 -175
0 -93 3 -111 27 -162 31 -66 105 -150 148 -168 28 -12 29 -15 24 -51 -7 -43
14 -79 45 -79 9 0 23 -15 31 -33 8 -17 29 -41 45 -52 23 -15 29 -26 27 -47 -4
-34 36 -78 71 -78 14 0 38 14 57 33 28 28 31 37 27 74 -4 37 -1 45 30 75 25
24 33 39 30 57 -4 18 4 33 29 56 34 32 47 86 24 100 -5 3 4 25 20 48 35 49 70
177 70 252 0 250 -164 433 -361 404z m136 -48 c22 -10 51 -30 65 -45 l24 -27
-37 16 c-55 23 -143 19 -202 -9 -60 -28 -134 -105 -159 -166 -10 -25 -22 -52
-27 -62 -4 -9 -6 -49 -4 -88 7 -124 36 -189 130 -291 36 -39 65 -75 65 -79 0
-5 12 -16 26 -23 33 -17 21 -26 -44 -34 -70 -8 -92 7 -88 58 3 37 1 42 -33 64
-67 42 -129 121 -151 192 -47 151 -7 286 120 407 104 100 219 131 315 87z
m-125 -851 c0 -6 12 -22 26 -35 l27 -25 -29 0 c-37 0 -74 25 -74 51 0 14 7 19
25 19 14 0 25 -5 25 -10z m48 -130 c21 -43 19 -49 -10 -23 -15 14 -26 63 -14
63 2 0 13 -18 24 -40z"/>
<path d="M6272 9093 c-41 -16 -32 -83 11 -83 44 0 62 43 31 74 -16 17 -21 18
-42 9z"/>
<path d="M5515 9055 c-28 -27 -34 -94 -13 -140 14 -30 43 -35 35 -5 -4 17 0
20 25 20 40 0 65 15 83 50 18 35 11 76 -15 90 -35 19 -89 12 -115 -15z m105
-24 c14 -27 -15 -60 -62 -70 -38 -9 -38 -8 -38 22 0 17 7 39 17 49 22 24 69
24 83 -1z"/>
<path d="M9385 8965 c-102 -16 -176 -36 -350 -92 -391 -127 -555 -214 -673
-356 -125 -151 -193 -424 -148 -592 32 -121 113 -225 218 -280 l55 -29 6 -80
c7 -89 31 -172 70 -233 33 -52 119 -129 160 -142 26 -9 39 -23 60 -67 75 -151
232 -334 362 -419 85 -56 210 -105 267 -105 l47 0 14 -48 c21 -68 41 -162 36
-165 -2 -2 -121 -22 -264 -46 -238 -39 -645 -115 -687 -127 -10 -3 -18 -11
-18 -18 0 -8 -17 -16 -40 -19 -172 -23 -545 -350 -791 -695 -188 -263 -359
-609 -385 -779 -4 -24 -9 -43 -13 -43 -3 0 -739 99 -1636 220 -896 121 -1631
218 -1632 216 -2 -2 41 -342 96 -757 55 -414 99 -754 98 -755 -1 -1 -628 -365
-1393 -808 l-1391 -807 -8 -80 c-3 -45 -5 -82 -3 -83 2 -1 2476 -330 5498
-730 3022 -400 5502 -730 5511 -732 13 -4 1073 1108 2264 2374 l69 74 -53 50
c-47 44 -58 49 -104 52 -127 8 -3477 341 -3477 346 0 3 15 12 34 18 75 27 121
85 160 204 26 77 82 342 121 571 13 76 26 141 28 144 3 2 15 -9 28 -26 13 -17
28 -31 35 -31 35 0 50 274 25 455 -63 451 -214 874 -432 1210 -41 64 -90 122
-151 180 -105 98 -189 145 -443 248 -88 36 -216 89 -285 118 -69 29 -165 65
-215 79 -85 26 -91 29 -102 62 -17 50 -33 178 -33 261 l0 71 73 68 72 68 80 0
c260 0 449 152 548 439 48 139 49 326 1 731 -20 175 -48 279 -104 396 -103
212 -306 368 -584 448 -178 52 -444 69 -621 41z m342 -697 c191 -132 363 -343
426 -524 l15 -40 -78 -20 -78 -20 -6 49 c-16 119 -86 230 -171 268 -60 28
-166 25 -232 -5 -71 -34 -138 -103 -176 -184 -25 -53 -32 -83 -35 -150 -4 -80
-6 -83 -26 -77 -50 16 -191 17 -236 1 -49 -17 -60 -11 -60 34 0 39 -38 166
-64 218 -29 56 -68 96 -116 116 l-35 14 35 6 c19 3 63 8 97 11 203 19 435 139
580 300 33 37 64 62 71 60 8 -3 48 -29 89 -57z m-1037 -298 c47 -10 73 -18 59
-19 -15 -1 -52 -14 -83 -30 -31 -17 -56 -27 -56 -23 -1 4 -5 26 -9 50 -5 23
-6 42 -2 41 3 0 44 -9 91 -19z m1115 -11 c56 -15 127 -91 151 -160 28 -83 26
-244 -4 -332 -68 -195 -204 -269 -355 -192 -70 35 -100 68 -141 155 -58 124
-47 289 27 396 38 55 113 117 161 132 42 14 113 14 161 1z m-934 -53 c39 -17
90 -67 113 -113 61 -122 79 -330 36 -437 -40 -102 -131 -176 -218 -176 -28 0
-50 47 -97 210 -37 131 -88 396 -83 437 2 22 16 35 58 60 61 37 132 44 191 19z
m1318 -268 c5 -18 13 -50 17 -70 3 -21 8 -38 11 -38 3 0 19 11 35 26 49 41
127 75 182 81 46 5 55 2 84 -22 113 -95 22 -363 -146 -425 -56 -21 -132 -27
-132 -10 0 26 -21 2 -80 -87 -116 -178 -293 -329 -491 -422 -180 -84 -266 -89
-408 -21 -180 87 -322 227 -435 433 l-38 67 29 1 c123 3 228 120 256 285 l13
79 50 18 c37 14 67 18 124 15 106 -6 131 -22 152 -95 9 -32 34 -83 55 -113 49
-71 156 -130 237 -130 98 0 203 74 253 180 28 57 53 153 53 201 l0 37 73 20
c95 27 94 27 106 -10z m-1584 -52 c17 -1 23 -16 42 -101 13 -55 36 -139 52
-187 16 -49 26 -88 22 -88 -4 0 -28 14 -53 30 -80 53 -132 159 -145 293 l-6
69 34 -8 c19 -4 43 -8 54 -8z m1304 -1111 c16 -70 50 -173 73 -217 l18 -38
-24 -39 c-34 -54 -84 -89 -157 -112 -108 -34 -187 -22 -215 33 -8 15 -25 87
-39 160 -14 73 -28 145 -31 160 -6 24 -2 28 32 37 96 27 211 121 284 233 l35
54 7 -110 c3 -61 11 -133 17 -161z m-356 -320 c4 -23 3 -34 -2 -25 -5 8 -11
38 -14 65 -7 56 6 25 16 -40z m-3453 -1391 c1092 -147 1988 -270 1992 -273 4
-3 16 -386 27 -851 11 -465 25 -1034 31 -1265 10 -410 12 -630 5 -610 -2 6
-11 226 -20 490 -9 264 -20 497 -23 518 -5 27 -21 -98 -51 -395 -23 -238 -46
-436 -50 -439 -6 -6 -2130 208 -2281 230 -140 20 -1300 217 -1304 222 -2 2
-81 587 -175 1299 -94 712 -174 1305 -176 1318 -4 18 -1 22 17 22 13 0 916
-120 2008 -266z m1603 -174 c22 -6 37 -13 35 -14 -1 -2 -59 5 -128 15 l-125
18 90 -4 c50 -2 107 -9 128 -15z m467 -214 c0 -11 -3 -45 -7 -74 -8 -72 -23
-47 -23 40 0 56 3 66 15 62 8 -4 15 -16 15 -28z m85 -28 c32 -21 35 -26 30
-58 -6 -37 -95 -774 -95 -784 0 -3 -6 -6 -14 -6 -11 0 -15 50 -20 268 -7 245
-5 276 13 372 12 57 24 133 27 167 4 35 11 63 16 63 4 0 24 -10 43 -22z m2975
-108 c89 -10 179 -33 217 -58 13 -8 1 -103 -47 -356 -96 -502 -138 -576 -339
-593 -119 -10 -337 39 -534 119 l-97 40 -32 -27 c-48 -40 -161 -94 -231 -109
-82 -18 -204 -21 -223 -5 -34 28 -9 62 101 137 35 25 45 36 36 45 -8 8 -17 7
-34 -2 -46 -25 -139 -104 -147 -127 -11 -28 -56 -34 -119 -16 -60 17 -84 38
-70 64 35 65 126 134 202 152 28 7 38 36 12 36 -32 0 -118 -40 -160 -75 -25
-20 -57 -57 -72 -83 -14 -26 -28 -49 -29 -51 -2 -2 -17 2 -34 9 -39 16 -70 55
-63 80 7 26 89 101 152 140 28 18 51 38 51 46 0 21 -13 18 -88 -20 -126 -64
-255 -84 -327 -52 l-30 14 105 50 c240 114 502 172 780 172 206 0 334 -21 422
-67 69 -36 169 -124 215 -188 16 -24 24 -27 34 -18 27 27 -105 165 -221 230
l-49 27 -3 71 c-8 172 25 359 66 368 11 3 55 12 96 22 142 32 305 40 460 25z
m-6909 -1298 c41 -310 76 -568 79 -572 3 -5 62 -18 130 -30 69 -11 348 -59
620 -106 l495 -86 125 -74 c363 -217 885 -432 1280 -528 301 -73 518 -100 815
-100 243 0 354 10 550 49 437 87 907 304 1230 566 119 97 176 169 154 195 -7
8 34 27 153 69 373 133 363 129 366 153 2 12 -2 35 -9 50 -12 28 -14 29 -1063
262 -578 128 -1055 237 -1060 241 -7 7 -27 427 -21 437 1 1 319 -29 706 -68
l704 -70 90 -36 c91 -37 238 -81 308 -91 49 -7 182 13 255 38 l57 20 2160
-212 c1188 -117 2164 -215 2168 -219 5 -4 -487 -531 -1093 -1172 l-1101 -1165
-52 8 c-29 4 -2473 330 -5432 725 -2959 394 -5383 720 -5387 723 -4 4 599 358
1340 788 741 430 1350 778 1353 775 3 -4 39 -261 80 -570z m5869 -394 c13 -5
13 -6 0 -12 -8 -3 -409 -150 -890 -327 -831 -305 -1064 -389 -1082 -389 -4 0
-8 47 -8 105 l0 105 109 -54 c101 -51 121 -57 121 -34 0 4 -51 34 -114 65 -71
35 -117 64 -119 75 -4 14 13 33 62 73 38 30 73 55 78 55 6 0 76 -29 157 -65
80 -36 151 -65 156 -65 6 0 10 6 10 14 0 8 -61 40 -145 77 -80 35 -145 66
-145 69 0 3 47 38 105 78 l104 73 181 -71 c100 -40 184 -70 187 -67 17 17 -20
38 -171 96 -91 36 -166 68 -166 73 0 4 -10 8 -21 8 -12 0 -109 30 -215 68
l-194 67 0 57 0 56 38 -10 c20 -6 81 -28 134 -49 109 -44 157 -56 167 -42 3 5
38 30 76 55 87 58 152 114 143 123 -9 10 -366 145 -381 145 -7 0 -47 -23 -90
-50 -43 -28 -82 -50 -88 -50 -5 0 -9 43 -9 98 l0 99 998 -222 c548 -122 1004
-224 1012 -227z m-1656 258 l169 -63 -64 -48 c-35 -26 -83 -57 -107 -69 l-43
-21 -62 24 c-34 13 -101 37 -149 55 -116 41 -116 52 0 128 48 31 87 57 87 57
0 1 76 -28 169 -63z m-195 -328 c9 -2 -14 -24 -60 -57 l-74 -52 -6 28 c-4 15
-7 51 -8 80 l-1 52 68 -23 c37 -13 73 -25 81 -28z m134 -46 l76 -28 -100 -72
c-55 -40 -106 -72 -112 -72 -18 0 -141 60 -135 66 11 10 183 132 189 133 3 1
40 -12 82 -27z m-218 -174 c25 -12 45 -25 45 -29 0 -7 -85 -79 -94 -79 -3 0
-6 29 -6 65 0 36 2 65 5 65 2 0 25 -10 50 -22z"/>
<path d="M9599 7791 c-22 -18 -23 -20 -6 -27 10 -3 23 -2 30 5 14 14 62 14 89
0 31 -17 45 5 17 25 -32 22 -101 21 -130 -3z"/>
<path d="M9666 7648 c7 -80 20 -121 44 -143 31 -28 43 -9 36 52 -7 62 -49 153
-71 153 -12 0 -14 -12 -9 -62z"/>
<path d="M8753 7748 c-13 -6 -23 -19 -23 -30 0 -22 4 -22 36 -2 20 14 29 15
51 5 35 -16 52 1 22 23 -27 18 -54 19 -86 4z"/>
<path d="M8812 7578 c5 -77 29 -138 53 -138 36 0 22 120 -22 187 -27 41 -36
27 -31 -49z"/>
<path d="M9156 7413 c-21 -66 -56 -219 -56 -248 0 -33 44 -65 89 -65 47 1 133
31 139 49 4 11 -3 12 -34 6 -22 -4 -64 -9 -94 -9 -55 -1 -55 -1 -58 31 -3 26
25 158 54 261 5 16 2 22 -9 22 -10 0 -21 -18 -31 -47z"/>
<path d="M9430 6972 c-30 -32 -60 -52 -88 -60 -48 -15 -52 -39 -6 -34 44 5
111 48 139 90 47 70 20 72 -45 4z"/>
<path d="M5933 3851 c-98 -25 -172 -105 -194 -210 -14 -69 -5 -179 20 -236 36
-82 123 -155 186 -155 29 0 30 1 9 60 -26 76 3 156 73 197 59 34 126 29 189
-16 56 -39 68 -39 85 1 46 112 -40 279 -175 339 -53 23 -143 33 -193 20z m179
-50 c24 -11 54 -29 68 -41 25 -20 24 -20 -19 1 -174 88 -373 -44 -373 -248 0
-47 6 -76 24 -113 20 -41 22 -47 7 -34 -55 50 -73 240 -30 327 58 118 199 166
323 108z"/>
<path d="M6083 3430 c-40 -24 -62 -57 -70 -103 -9 -58 28 -140 56 -122 7 4 3
19 -9 43 -24 44 -25 61 -5 108 33 80 146 78 196 -3 23 -37 39 -43 39 -14 0 27
-48 81 -87 97 -45 19 -82 17 -120 -6z"/>
<path d="M6134 3292 c-16 -11 -34 -48 -34 -72 0 -28 43 -70 73 -70 13 0 36 9
51 21 33 26 36 79 6 109 -20 20 -74 27 -96 12z m74 -34 c17 -17 15 -44 -4 -62
-22 -23 -41 -20 -59 8 -13 19 -14 29 -5 45 12 23 49 28 68 9z"/>
<path d="M11486 2851 c-9 -16 -16 -48 -16 -71 0 -33 4 -42 23 -50 22 -9 719
-44 830 -41 38 0 79 10 122 28 80 34 83 55 13 91 -58 30 -150 38 -588 52 -179
5 -335 12 -347 16 -17 5 -25 0 -37 -25z m469 -26 c121 -3 243 -8 271 -11 l52
-5 -5 -42 c-3 -23 -7 -43 -9 -45 -6 -8 -721 30 -741 38 -23 10 -29 33 -16 65
5 16 18 17 117 11 61 -3 210 -8 331 -11z m477 -41 c16 -8 26 -19 23 -23 -8
-13 -94 -41 -127 -41 -24 0 -28 4 -28 27 0 42 28 66 69 58 20 -4 48 -13 63
-21z"/>
<path d="M10910 2293 c-247 -197 -607 -495 -777 -642 -29 -24 -53 -50 -53 -57
0 -14 89 -23 370 -34 202 -9 311 -24 425 -60 17 -5 49 -14 72 -20 l42 -11 -94
-143 c-52 -79 -95 -149 -95 -155 0 -10 25 -11 113 -4 61 4 247 8 412 7 333 -1
501 -17 790 -76 173 -36 187 -37 192 -21 7 19 -271 76 -532 109 -163 20 -649
29 -805 16 -63 -6 -116 -9 -118 -8 -2 2 33 59 77 126 44 67 82 127 83 132 3 7
28 5 73 -5 120 -27 291 -47 404 -47 l108 0 194 198 c107 109 241 250 298 313
l104 116 270 7 c148 3 272 4 275 1 3 -2 -81 -208 -186 -457 -105 -249 -192
-460 -194 -468 -2 -8 3 -15 11 -15 16 0 423 953 414 968 -3 5 -128 6 -281 1
-234 -6 -274 -5 -267 7 5 8 40 50 79 94 101 114 98 110 91 138 -6 22 -17 27
-98 46 -340 78 -622 122 -1057 167 l-56 5 -284 -228z m568 167 c270 -31 789
-124 884 -159 19 -7 9 -21 -119 -167 -199 -226 -282 -315 -487 -523 l-181
-183 -155 6 c-170 6 -272 24 -481 82 -217 60 -243 64 -499 74 -135 6 -257 14
-272 18 -27 7 -27 8 50 72 233 198 467 391 712 588 l275 221 45 -4 c25 -3 127
-14 228 -25z"/>
<path d="M11190 2146 c0 -10 32 -18 113 -31 61 -9 180 -30 262 -46 176 -34
165 -33 165 -14 0 8 -2 15 -4 15 -2 0 -48 9 -102 20 -114 24 -390 70 -416 70
-10 0 -18 -6 -18 -14z"/>
<path d="M10790 2057 c0 -11 40 -17 166 -26 261 -18 470 -50 696 -107 113 -28
118 -28 118 -10 0 36 -446 121 -769 146 -180 13 -211 13 -211 -3z"/>
<path d="M10950 1836 c0 -10 17 -16 58 -21 163 -18 302 -39 435 -65 170 -35
167 -34 167 -16 0 22 -242 71 -505 101 -158 18 -155 18 -155 1z"/>
<path d="M10468 1743 c-22 -2 -38 -10 -38 -17 0 -10 41 -12 198 -8 284 7 465
-18 718 -99 139 -44 134 -44 134 -25 0 24 -206 89 -405 127 -88 17 -156 22
-340 24 -126 2 -247 1 -267 -2z"/>
<path d="M11952 1659 c3 -11 36 -15 134 -20 71 -4 171 -10 223 -14 78 -6 93
-5 89 6 -6 18 -65 26 -277 35 -148 6 -173 5 -169 -7z"/>
<path d="M11740 1485 c0 -12 14 -15 70 -15 56 0 70 3 70 15 0 12 -14 15 -70
15 -56 0 -70 -3 -70 -15z"/>
<path d="M11970 1489 c0 -12 32 -17 148 -27 81 -7 171 -15 200 -19 42 -4 52
-3 52 9 0 17 -111 33 -295 45 -88 5 -105 4 -105 -8z"/>
<path d="M11184 1354 c-6 -3 -47 -8 -90 -12 -86 -8 -106 -25 -35 -30 66 -5
181 17 181 34 0 13 -32 18 -56 8z"/>
<path d="M11457 1313 c-22 -6 -17 -28 6 -27 10 0 51 1 92 2 59 2 75 5 75 17 0
12 -15 15 -77 14 -43 -1 -86 -3 -96 -6z"/>
<path d="M11730 1298 c0 -12 30 -17 153 -27 83 -6 194 -17 245 -25 87 -12 118
-7 96 14 -10 9 -242 37 -391 46 -87 6 -103 5 -103 -8z"/>
<path d="M3637 8801 c-17 -54 -46 -115 -73 -155 -47 -71 -52 -86 -30 -86 38 0
168 273 152 317 -11 27 -22 10 -49 -76z"/>
<path d="M3365 8694 c-44 -30 -120 -78 -168 -106 -64 -37 -85 -54 -77 -62 8
-8 28 -2 73 22 101 55 277 175 277 189 0 23 -23 13 -105 -43z"/>
<path d="M5219 8587 c-48 -32 -71 -81 -65 -137 3 -25 9 -71 12 -103 l6 -58
-44 -43 c-49 -46 -86 -59 -258 -91 -199 -37 -322 -135 -429 -343 -92 -177
-160 -232 -287 -232 -66 1 -121 28 -171 84 -45 51 -73 55 -48 7 37 -72 129
-121 230 -121 126 0 207 60 284 210 59 114 109 187 162 235 88 81 146 106 314
136 134 24 206 57 245 111 39 54 45 94 25 163 -9 32 -13 69 -10 86 7 30 66 89
90 89 8 0 15 7 15 15 0 22 -32 18 -71 -8z"/>
<path d="M6010 8425 c0 -24 45 -46 133 -67 133 -31 190 -75 238 -183 26 -59
29 -153 5 -209 -20 -47 -20 -56 -2 -56 24 0 49 79 48 155 0 80 -18 137 -63
200 -45 62 -95 92 -206 121 -52 13 -105 31 -116 39 -27 19 -37 19 -37 0z"/>
<path d="M3495 8348 c-73 -94 -338 -359 -461 -462 -219 -183 -378 -288 -783
-519 -272 -154 -454 -272 -577 -370 -114 -93 -243 -232 -282 -305 -84 -157
-32 -282 117 -282 27 0 190 27 361 60 171 33 331 60 356 60 77 0 138 -37 146
-89 5 -38 28 -38 28 -1 0 45 -33 86 -85 106 -67 25 -159 16 -490 -51 -327 -66
-365 -67 -417 -15 -66 67 -21 186 129 341 179 185 313 280 737 521 500 286
725 448 1002 723 161 160 287 302 281 319 -7 22 -24 13 -62 -36z"/>
<path d="M6480 8376 c0 -9 25 -20 73 -30 198 -44 296 -136 284 -265 -9 -107
-69 -186 -252 -335 -131 -106 -240 -218 -333 -341 -113 -150 -141 -223 -110
-290 11 -24 24 -32 160 -94 64 -30 132 -93 157 -144 52 -107 3 -209 -162 -340
-105 -85 -177 -161 -177 -188 0 -11 2 -19 6 -19 3 0 30 27 61 60 30 33 94 91
143 130 48 38 100 86 114 105 130 170 59 354 -169 442 -81 31 -115 61 -115
100 0 102 229 382 460 565 180 142 242 230 248 354 3 56 0 79 -16 110 -44 86
-140 147 -279 178 -88 20 -93 20 -93 2z"/>
<path d="M5465 8086 c-35 -38 -45 -71 -45 -151 0 -32 -5 -57 -13 -64 -8 -6
-49 -16 -91 -23 -54 -8 -80 -17 -86 -29 -5 -9 -8 -72 -6 -140 4 -183 25 -219
124 -219 27 0 101 -9 163 -20 147 -26 260 -26 315 -1 49 22 98 80 101 118 19
239 16 260 -46 316 -27 24 -52 36 -86 41 -72 11 -74 13 -109 91 -42 90 -72
115 -139 115 -44 0 -54 -4 -82 -34z m147 -24 c15 -15 34 -45 43 -67 l17 -40
-31 37 c-71 84 -171 66 -171 -31 0 -17 -4 -31 -10 -31 -5 0 -10 14 -10 30 0
73 60 147 110 135 14 -3 37 -18 52 -33z m-297 -320 c-6 -63 6 -196 21 -235 9
-24 -28 -22 -50 2 -39 43 -47 261 -10 288 39 28 46 18 39 -55z"/>
<path d="M6860 7671 c-16 -31 -12 -59 12 -75 28 -20 33 -20 52 0 19 18 21 65
4 82 -18 18 -56 14 -68 -7z"/>
<path d="M3000 7612 c-152 -74 -410 -310 -410 -374 0 -13 30 -50 77 -97 81
-80 178 -205 222 -283 14 -26 32 -48 40 -48 7 0 62 25 121 56 119 62 263 164
355 254 33 32 65 56 72 53 28 -10 18 21 -33 103 -95 151 -225 325 -258 345
-46 28 -118 25 -186 -9z m-301 -304 c-4 -42 12 -88 31 -88 25 0 140 -127 206
-227 30 -44 61 -84 69 -87 8 -3 15 -9 15 -14 0 -10 -78 -48 -84 -41 -2 2 -32
46 -66 98 -35 51 -106 138 -158 192 -103 108 -101 98 -43 162 30 33 32 33 30
5z"/>
<path d="M4767 7526 c-85 -31 -101 -67 -92 -201 6 -92 5 -107 -14 -143 -24
-48 -69 -77 -140 -93 -101 -21 -144 -89 -139 -218 2 -48 7 -76 16 -79 9 -3 12
16 12 70 0 83 24 147 62 171 12 9 49 23 82 32 69 20 130 70 147 122 8 24 9 62
4 112 -9 99 -8 120 10 148 25 37 63 56 111 55 48 0 62 21 22 32 -31 8 -37 7
-81 -8z"/>
<path d="M1840 7364 c-294 -207 -292 -206 -317 -243 -26 -39 -30 -71 -8 -71 8
0 15 6 15 14 0 31 61 83 296 248 221 155 259 187 228 194 -5 1 -101 -63 -214
-142z"/>
<path d="M4152 7444 c-26 -18 -30 -74 -6 -98 16 -17 61 -21 80 -8 39 25 36 90
-5 111 -27 15 -43 14 -69 -5z m66 -57 c-2 -16 -10 -22 -28 -22 -28 0 -39 27
-20 50 18 21 52 1 48 -28z"/>
<path d="M5676 7049 c-20 -15 -26 -29 -26 -58 0 -40 23 -81 46 -81 18 0 18 19
-1 44 -19 26 -19 51 1 70 20 20 38 20 58 1 19 -20 10 -44 -20 -56 -33 -12 -30
-29 5 -29 56 0 80 69 38 108 -29 28 -67 28 -101 1z"/>
<path d="M2306 6875 c-19 -19 -21 -66 -4 -83 22 -22 66 -14 85 14 15 24 15 29
2 53 -17 31 -59 39 -83 16z"/>
<path d="M2582 6798 c-17 -17 -15 -53 3 -68 8 -7 25 -10 40 -6 24 6 30 21 25
56 -4 29 -46 40 -68 18z"/>
<path d="M3205 6697 c-84 -28 -136 -70 -260 -213 -108 -124 -190 -191 -292
-240 -122 -59 -230 -48 -268 26 -15 30 -45 41 -45 18 0 -21 43 -75 73 -93 43
-25 146 -23 220 5 96 36 199 113 299 223 185 202 240 244 334 255 74 8 123
-18 227 -122 102 -102 160 -136 233 -136 39 0 51 5 81 36 26 25 33 38 25 46
-8 8 -21 2 -47 -21 -69 -60 -139 -35 -265 94 -47 47 -103 96 -124 107 -49 25
-138 32 -191 15z"/>
<path d="M5182 6524 c-47 -23 -104 -76 -114 -104 -2 -8 -15 -1 -34 18 -71 70
-198 47 -261 -47 -18 -27 -23 -48 -23 -99 0 -94 33 -149 130 -218 41 -29 91
-69 110 -88 30 -32 35 -43 38 -102 5 -78 21 -80 37 -3 15 75 45 130 140 258
109 145 137 202 143 295 4 70 3 73 -23 94 -36 29 -80 28 -143 -4z m-326 -128
c-40 -97 -29 -165 45 -261 27 -36 47 -65 44 -65 -11 0 -89 57 -112 82 -47 50
-66 142 -43 203 10 27 56 75 72 75 4 0 2 -15 -6 -34z m184 -17 c0 -6 -4 -7
-10 -4 -5 3 -10 11 -10 16 0 6 5 7 10 4 6 -3 10 -11 10 -16z"/>
<path d="M5818 6480 c-22 -13 -107 -150 -124 -200 -21 -60 -6 -86 66 -118 44
-18 62 -32 66 -49 15 -58 -24 -110 -107 -139 -27 -10 -49 -24 -49 -31 0 -18
21 -16 72 6 101 43 146 116 114 183 -16 33 -50 58 -79 58 -7 0 -25 11 -40 25
-26 25 -27 27 -12 61 21 51 102 171 120 178 8 3 17 1 20 -4 10 -17 25 -11 25
9 0 29 -39 40 -72 21z"/>
<path d="M3982 6470 c-97 -20 -195 -79 -390 -232 -62 -49 -124 -93 -138 -98
-13 -5 -24 -13 -24 -17 0 -12 155 -308 177 -337 22 -31 36 -32 121 -5 242 75
444 184 642 346 10 9 -102 213 -141 257 -68 77 -151 105 -247 86z m155 -51
c52 -25 105 -91 158 -199 l37 -74 -38 -34 c-67 -58 -213 -151 -309 -197 -99
-48 -289 -115 -323 -115 -12 0 -32 14 -45 33 -36 47 -139 257 -134 271 6 16
276 223 344 265 116 72 229 89 310 50z"/>
<path d="M3828 6254 c-56 -30 -76 -120 -40 -179 22 -36 89 -76 100 -59 4 6 20
14 36 18 48 12 86 58 86 106 0 47 -20 92 -52 114 -28 20 -94 20 -130 0z m123
-43 c40 -40 39 -82 -1 -123 -27 -27 -36 -30 -73 -25 -51 7 -77 36 -77 84 0 46
45 93 90 93 22 0 41 -9 61 -29z"/>
<path d="M1896 6283 c-25 -32 -62 -89 -83 -128 -69 -132 -54 -276 38 -359 70
-64 159 -61 299 9 210 106 387 161 549 171 160 11 256 -21 294 -97 15 -32 16
-41 3 -81 -7 -25 -44 -94 -81 -154 -105 -167 -196 -377 -211 -487 -11 -81 48
-147 131 -147 61 0 132 39 236 129 175 152 323 241 508 305 261 91 566 111
772 50 39 -12 66 -28 96 -60 62 -64 89 -55 37 13 -31 41 -99 76 -179 94 -94
21 -388 18 -510 -5 -294 -55 -533 -177 -768 -393 -92 -84 -167 -114 -232 -93
-36 12 -65 51 -65 89 0 32 69 219 116 316 24 50 75 139 113 199 81 125 94 173
66 236 -49 109 -231 148 -466 100 -124 -26 -208 -56 -384 -138 -123 -58 -147
-66 -201 -66 -51 -1 -66 3 -96 26 -56 43 -82 105 -76 186 6 81 37 150 113 253
30 41 55 77 55 81 0 24 -34 1 -74 -49z"/>
<path d="M3196 5978 c-9 -12 -16 -30 -16 -40 0 -24 35 -58 60 -58 26 0 60 34
60 60 0 28 -35 60 -64 60 -14 0 -32 -10 -40 -22z"/>
<path d="M2513 5864 c-7 -3 -13 -13 -13 -21 0 -12 7 -14 31 -9 63 12 138 -43
159 -119 19 -68 -6 -142 -79 -230 -44 -53 -49 -65 -27 -65 20 0 82 74 114 135
34 65 37 163 7 214 -31 53 -84 90 -135 96 -25 2 -51 2 -57 -1z"/>
<path d="M4160 5305 c0 -11 11 -15 36 -15 28 0 44 -8 71 -35 33 -33 35 -38 29
-80 -6 -36 -4 -45 7 -45 16 0 27 29 27 70 0 35 -34 86 -69 105 -40 20 -101 20
-101 0z"/>
</g>
</svg>
